<?xml version="1.0" encoding="utf-8"?>
<!-- Generator: Adobe Illustrator 19.2.0, SVG Export Plug-In . SVG Version: 6.00 Build 0)  -->
<svg version="1.1" id="Layer_1" xmlns:sketch="http://www.bohemiancoding.com/sketch/ns"
	 xmlns="http://www.w3.org/2000/svg" xmlns:xlink="http://www.w3.org/1999/xlink" x="0px" y="0px" viewBox="0 0 83 82"
	 style="enable-background:new 0 0 83 82;" xml:space="preserve">
<g id="Page-1_3_" sketch:type="MSPage">
	<g id="opt-2_3_" transform="translate(-484.000000, -482.000000)" sketch:type="MSLayerGroup">
		<g id="icon_3_" transform="translate(484.912024, 482.000000)" sketch:type="MSShapeGroup">
			<path id="Oval-1_3_" d="M40.6,4c20.4,0,37,16.6,37,37S61,78,40.6,78s-37-16.6-37-37S20.2,4,40.6,4 M40.6,0c-22.6,0-41,18.4-41,41
				s18.4,41,41,41s41-18.4,41-41S63.2,0,40.6,0L40.6,0z"/>
		</g>
	</g>
</g>
<g>
	<path d="M26.8,35.8h-4.7c-0.1-1.9-1.2-2.9-2.9-2.9c-1.6,0-2.7,0.9-2.7,2.5c0,1.8,1.3,2.4,4.1,3.4c5,1.7,6.8,3.8,6.8,7.3
		c0,4.5-3.4,7.1-7.8,7.1c-5.4,0-8.2-3.2-8.3-7.6H16c0.1,2.3,1.3,3.6,3.7,3.6c2,0,3.1-1.1,3.1-2.7c0-1.6-1.2-2.5-4.2-3.5
		c-4.3-1.4-6.8-3.3-6.8-7.2c0-4.1,2.8-7,7.4-7C23.7,28.8,26.6,31.1,26.8,35.8z"/>
	<path d="M44.6,33.5h-9v5h7.7v4.3h-7.7v5.6h9v4.3H31V29.2h13.6V33.5z"/>
	<path d="M71.6,41c0,7.1-5,12.2-12.2,12.2c-7.2,0-12.2-5.2-12.2-12.2c0-7,5-12.2,12.2-12.2C66.6,28.8,71.6,33.9,71.6,41z M52.1,41
		c0,4.6,2.9,7.9,7.4,7.9c4.4,0,7.4-3.4,7.4-7.9c0-4.5-2.9-7.9-7.4-7.9C55,33.1,52.1,36.4,52.1,41z"/>
</g>
<circle cx="41.5" cy="66.6" r="3.5"/>
</svg>
