<?xml version="1.0" encoding="utf-8"?>
<svg version="1.1" id="Layer_1" xmlns="http://www.w3.org/2000/svg" xmlns:xlink="http://www.w3.org/1999/xlink" x="0px" y="0px"
	 viewBox="0 0 283.5 283.5" style="enable-background:new 0 0 283.5 283.5;" xml:space="preserve">
<style type="text/css">
	.st0{fill:#FFFFFF;}
</style>
<path class="st0" d="M283.5,23.6c0-6.5-5.3-11.8-11.8-11.8h-35.4c0-6.5-5.3-11.8-11.8-11.8H59.1c-6.5,0-11.8,5.3-11.8,11.8H11.8
	C5.3,11.8,0,17.1,0,23.6c0,30.4,20.9,64,50,70c9.3,37.4,40.9,66.2,79.9,71v59.8h-23.6c-6.5,0-11.8,5.3-11.8,11.8
	c0,6.5,5.3,11.8,11.8,11.8h70.9c6.5,0,11.8-5.3,11.8-11.8c0-6.5-5.3-11.8-11.8-11.8h-23.6v-59.8c39-4.9,70.6-33.6,79.9-71
	C262.6,87.7,283.5,54,283.5,23.6z M25.1,35.4h22.1v32.1C36.8,61.6,28.4,48.7,25.1,35.4z M141.7,141.7c-39.1,0-70.9-31.8-70.9-70.9
	V23.6h141.7v47.2C212.6,109.9,180.8,141.7,141.7,141.7z M236.2,67.5V35.4h22.1C255,48.7,246.6,61.6,236.2,67.5z M212.6,271.6
	c0,6.5-5.3,11.8-11.8,11.8H82.7c-6.5,0-11.8-5.3-11.8-11.8c0-6.5,5.3-11.8,11.8-11.8h118.1C207.3,259.8,212.6,265.1,212.6,271.6z"/>
</svg>
